{
    "asset" : {
        "generator" : "Khronos glTF Blender I/O v1.4.40",
        "version" : "2.0"
    },
    "scene" : 0,
    "scenes" : [
        {
            "extras" : {
                "skinify" : {
                    "connect_mesh" : 0,
                    "connect_parents" : 0,
                    "generate_all" : 0,
                    "thickness" : 0.800000011920929,
                    "finger_thickness" : 0.25,
                    "apply_mod" : 1,
                    "parent_armature" : 1,
                    "sub_level" : 1
                },
                "glTF2ExportSettings" : {
                    "export_animations" : 0,
                    "export_apply" : 1,
                    "export_cameras" : 1,
                    "export_colors" : 0,
                    "export_extras" : 1,
                    "export_format" : "GLTF_EMBEDDED",
                    "export_materials" : "NONE",
                    "export_morph" : 0,
                    "export_skins" : 0,
                    "use_selection" : 1
                }
            },
            "name" : "Scene",
            "nodes" : [
                0,
                1,
                2,
                3,
                4,
                5,
                6,
                7,
                8,
                9,
                10,
                11,
                12,
                13,
                14,
                15,
                16,
                17
            ]
        }
    ],
    "nodes" : [
        {
            "mesh" : 0,
            "name" : "Cube.030",
            "rotation" : [
                0,
                0.4865568280220032,
                0,
                0.8736489415168762
            ],
            "scale" : [
                0.2826281189918518,
                0.41315069794654846,
                0.2826281189918518
            ],
            "translation" : [
                5.782182216644287,
                0.5116181373596191,
                5.684640407562256
            ]
        },
        {
            "mesh" : 1,
            "name" : "Cube.033",
            "rotation" : [
                0,
                -0.8879842162132263,
                0,
                0.4598739743232727
            ],
            "scale" : [
                0.1414300799369812,
                0.2067449539899826,
                0.1414300799369812
            ],
            "translation" : [
                5.786012172698975,
                -0.311104953289032,
                5.678456783294678
            ]
        },
        {
            "mesh" : 2,
            "name" : "Cube.036",
            "rotation" : [
                -0.1747056096792221,
                0.018871713429689407,
                -0.32791200280189514,
                0.9282217025756836
            ],
            "scale" : [
                0.034670352935791016,
                0.016579927876591682,
                0.1147097796201706
            ],
            "translation" : [
                5.918813228607178,
                0.07277017831802368,
                5.8561787605285645
            ]
        },
        {
            "mesh" : 2,
            "name" : "Cube.037",
            "rotation" : [
                0.5645033121109009,
                0.41447916626930237,
                0.6551691293716431,
                0.28336623311042786
            ],
            "scale" : [
                0.034670352935791016,
                0.016579926013946533,
                0.1147097796201706
            ],
            "translation" : [
                6.006585597991943,
                -0.26580438017845154,
                5.715573787689209
            ]
        },
        {
            "mesh" : 2,
            "name" : "Cube.049",
            "rotation" : [
                0.11820127815008163,
                0.19814684987068176,
                0.930345892906189,
                0.2849961817264557
            ],
            "scale" : [
                0.025369836017489433,
                0.012132270261645317,
                0.08393824100494385
            ],
            "translation" : [
                5.557910442352295,
                0.4128994047641754,
                6.175461769104004
            ]
        },
        {
            "mesh" : 2,
            "name" : "Cube.052",
            "rotation" : [
                0.5854529142379761,
                -0.3794841766357422,
                -0.3188689351081848,
                0.641528844833374
            ],
            "scale" : [
                0.025369837880134583,
                0.012132269330322742,
                0.08393824845552444
            ],
            "translation" : [
                5.645078182220459,
                0.004785060882568359,
                6.048304080963135
            ]
        },
        {
            "mesh" : 2,
            "name" : "Cube.053",
            "rotation" : [
                0.23052258789539337,
                -0.630817174911499,
                -0.3933334946632385,
                0.6278676390647888
            ],
            "scale" : [
                0.025369837880134583,
                0.012132269330322742,
                0.08393824845552444
            ],
            "translation" : [
                5.383080005645752,
                0.36923208832740784,
                6.103672027587891
            ]
        },
        {
            "mesh" : 2,
            "name" : "Cube.054",
            "rotation" : [
                0.5643923878669739,
                -0.8120899796485901,
                0.14753057062625885,
                0.014346917159855366
            ],
            "scale" : [
                0.025369836017489433,
                0.012132270261645317,
                0.08393824100494385
            ],
            "translation" : [
                5.750071048736572,
                -0.589538037776947,
                5.910579204559326
            ]
        },
        {
            "mesh" : 2,
            "name" : "Cube.055",
            "rotation" : [
                0.49292808771133423,
                -0.6839549541473389,
                0.1417100578546524,
                -0.5187926292419434
            ],
            "scale" : [
                0.025369837880134583,
                0.012132269330322742,
                0.08393824100494385
            ],
            "translation" : [
                5.979341983795166,
                0.40297213196754456,
                5.577958583831787
            ]
        },
        {
            "mesh" : 2,
            "name" : "Cube.056",
            "rotation" : [
                0.324981153011322,
                -0.6502099633216858,
                0.452435702085495,
                -0.5166392922401428
            ],
            "scale" : [
                0.02821599692106247,
                0.013493351638317108,
                0.09335501492023468
            ],
            "translation" : [
                5.547241687774658,
                -0.15603265166282654,
                5.710446834564209
            ]
        },
        {
            "mesh" : 2,
            "name" : "Cube.057",
            "rotation" : [
                0.2330009490251541,
                -0.8049156069755554,
                0.42788127064704895,
                -0.3387314975261688
            ],
            "scale" : [
                0.028216000646352768,
                0.013493351638317108,
                0.09335501492023468
            ],
            "translation" : [
                5.624573230743408,
                0.6110280752182007,
                5.8122239112854
            ]
        },
        {
            "mesh" : 2,
            "name" : "Cube.058",
            "rotation" : [
                0.30881935358047485,
                -0.6159023642539978,
                0.15698762238025665,
                -0.7075660824775696
            ],
            "scale" : [
                0.02821599878370762,
                0.013493349775671959,
                0.09335501492023468
            ],
            "translation" : [
                5.999780178070068,
                0.38187626004219055,
                5.732250690460205
            ]
        },
        {
            "mesh" : 2,
            "name" : "Cube.059",
            "rotation" : [
                -0.39921683073043823,
                -0.9125343561172485,
                -0.08258156478404999,
                0.03297315165400505
            ],
            "scale" : [
                0.02268339693546295,
                0.01084757037460804,
                0.07504993677139282
            ],
            "translation" : [
                5.78574800491333,
                0.10539364814758301,
                5.4568915367126465
            ]
        },
        {
            "mesh" : 2,
            "name" : "Cube.060",
            "rotation" : [
                -0.23691841959953308,
                -0.9144144654273987,
                -0.2962685823440552,
                0.1412125676870346
            ],
            "scale" : [
                0.02268339693546295,
                0.010847571305930614,
                0.07504994422197342
            ],
            "translation" : [
                5.828471660614014,
                0.775249719619751,
                5.560356616973877
            ]
        },
        {
            "mesh" : 2,
            "name" : "Cube.061",
            "rotation" : [
                0.5405716300010681,
                -0.8026097416877747,
                0.24842265248298645,
                -0.043429166078567505
            ],
            "scale" : [
                0.0226833987981081,
                0.010847571305930614,
                0.07504993677139282
            ],
            "translation" : [
                5.709254741668701,
                0.40291550755500793,
                5.897154331207275
            ]
        },
        {
            "mesh" : 2,
            "name" : "Cube.062",
            "rotation" : [
                0.7578651905059814,
                -0.1815670281648636,
                0.5297892689704895,
                -0.3346596658229828
            ],
            "scale" : [
                0.0226833987981081,
                0.01084757037460804,
                0.07504994422197342
            ],
            "translation" : [
                5.602462291717529,
                0.6084685325622559,
                6.088325500488281
            ]
        },
        {
            "mesh" : 2,
            "name" : "Cube.063",
            "rotation" : [
                0.6293967962265015,
                -0.45175451040267944,
                0.555702269077301,
                -0.3016168177127838
            ],
            "scale" : [
                0.02268339693546295,
                0.01084757037460804,
                0.07504993677139282
            ],
            "translation" : [
                5.4097723960876465,
                -0.004866182804107666,
                6.064746379852295
            ]
        },
        {
            "mesh" : 2,
            "name" : "Cube.064",
            "rotation" : [
                -0.05524341017007828,
                0.2845684885978699,
                0.5764678120613098,
                -0.7639724016189575
            ],
            "scale" : [
                0.01753297820687294,
                0.008384556509554386,
                0.05800935626029968
            ],
            "translation" : [
                5.508091449737549,
                0.20595315098762512,
                6.198276519775391
            ]
        }
    ],
    "meshes" : [
        {
            "name" : "Cube.011",
            "primitives" : [
                {
                    "attributes" : {
                        "POSITION" : 0,
                        "NORMAL" : 1,
                        "TEXCOORD_0" : 2
                    },
                    "indices" : 3
                }
            ]
        },
        {
            "name" : "Cube.012",
            "primitives" : [
                {
                    "attributes" : {
                        "POSITION" : 4,
                        "NORMAL" : 5,
                        "TEXCOORD_0" : 6
                    },
                    "indices" : 7
                }
            ]
        },
        {
            "name" : "Cube.013",
            "primitives" : [
                {
                    "attributes" : {
                        "POSITION" : 8,
                        "NORMAL" : 9,
                        "TEXCOORD_0" : 10
                    },
                    "indices" : 11
                }
            ]
        }
    ],
    "accessors" : [
        {
            "bufferView" : 0,
            "componentType" : 5126,
            "count" : 96,
            "max" : [
                0.8395062685012817,
                0.8395062685012817,
                0.8395062685012817
            ],
            "min" : [
                -0.8395062685012817,
                -5.985824108123779,
                -0.8395062685012817
            ],
            "type" : "VEC3"
        },
        {
            "bufferView" : 1,
            "componentType" : 5126,
            "count" : 96,
            "type" : "VEC3"
        },
        {
            "bufferView" : 2,
            "componentType" : 5126,
            "count" : 96,
            "type" : "VEC2"
        },
        {
            "bufferView" : 3,
            "componentType" : 5123,
            "count" : 144,
            "type" : "SCALAR"
        },
        {
            "bufferView" : 4,
            "componentType" : 5126,
            "count" : 192,
            "max" : [
                4.316499710083008,
                5.046298027038574,
                0.8395062685012817
            ],
            "min" : [
                7.152557373046875e-07,
                -0.38642263412475586,
                -0.8395062685012817
            ],
            "type" : "VEC3"
        },
        {
            "bufferView" : 5,
            "componentType" : 5126,
            "count" : 192,
            "type" : "VEC3"
        },
        {
            "bufferView" : 6,
            "componentType" : 5126,
            "count" : 192,
            "type" : "VEC2"
        },
        {
            "bufferView" : 7,
            "componentType" : 5123,
            "count" : 288,
            "type" : "SCALAR"
        },
        {
            "bufferView" : 8,
            "componentType" : 5126,
            "count" : 24,
            "max" : [
                1,
                1,
                1
            ],
            "min" : [
                -1,
                -1,
                -1
            ],
            "type" : "VEC3"
        },
        {
            "bufferView" : 9,
            "componentType" : 5126,
            "count" : 24,
            "type" : "VEC3"
        },
        {
            "bufferView" : 10,
            "componentType" : 5126,
            "count" : 24,
            "type" : "VEC2"
        },
        {
            "bufferView" : 11,
            "componentType" : 5123,
            "count" : 36,
            "type" : "SCALAR"
        }
    ],
    "bufferViews" : [
        {
            "buffer" : 0,
            "byteLength" : 1152,
            "byteOffset" : 0
        },
        {
            "buffer" : 0,
            "byteLength" : 1152,
            "byteOffset" : 1152
        },
        {
            "buffer" : 0,
            "byteLength" : 768,
            "byteOffset" : 2304
        },
        {
            "buffer" : 0,
            "byteLength" : 288,
            "byteOffset" : 3072
        },
        {
            "buffer" : 0,
            "byteLength" : 2304,
            "byteOffset" : 3360
        },
        {
            "buffer" : 0,
            "byteLength" : 2304,
            "byteOffset" : 5664
        },
        {
            "buffer" : 0,
            "byteLength" : 1536,
            "byteOffset" : 7968
        },
        {
            "buffer" : 0,
            "byteLength" : 576,
            "byteOffset" : 9504
        },
        {
            "buffer" : 0,
            "byteLength" : 288,
            "byteOffset" : 10080
        },
        {
            "buffer" : 0,
            "byteLength" : 288,
            "byteOffset" : 10368
        },
        {
            "buffer" : 0,
            "byteLength" : 192,
            "byteOffset" : 10656
        },
        {
            "buffer" : 0,
            "byteLength" : 72,
            "byteOffset" : 10848
        }
    ],
    "buffers" : [
        {
            "byteLength" : 10920,
            "uri" : "data:application/octet-stream;base64,"
        }
    ]
}
