{
    "asset" : {
        "generator" : "Khronos glTF Blender I/O v1.4.40",
        "version" : "2.0"
    },
    "scene" : 0,
    "scenes" : [
        {
            "extras" : {
                "skinify" : {
                    "connect_mesh" : 0,
                    "connect_parents" : 0,
                    "generate_all" : 0,
                    "thickness" : 0.800000011920929,
                    "finger_thickness" : 0.25,
                    "apply_mod" : 1,
                    "parent_armature" : 1,
                    "sub_level" : 1
                },
                "glTF2ExportSettings" : {
                    "export_animations" : 0,
                    "export_extras" : 1,
                    "export_format" : "GLTF_EMBEDDED",
                    "export_materials" : "NONE",
                    "export_morph" : 0,
                    "export_skins" : 0,
                    "use_selection" : 1
                }
            },
            "name" : "Scene",
            "nodes" : [
                0,
                1
            ]
        }
    ],
    "nodes" : [
        {
            "mesh" : 0,
            "name" : "Cube",
            "scale" : [
                19.095598220825195,
                19.095598220825195,
                19.095598220825195
            ],
            "translation" : [
                -400.90924072265625,
                0,
                -518.9085693359375
            ]
        },
        {
            "mesh" : 1,
            "name" : "Cube.001",
            "rotation" : [
                0,
                -0.4357488751411438,
                0,
                0.9000684022903442
            ],
            "scale" : [
                -266.2591247558594,
                -71.57848358154297,
                -153.33917236328125
            ],
            "translation" : [
                658.3646850585938,
                0,
                -328.16998291015625
            ]
        }
    ],
    "meshes" : [
        {
            "name" : "Cube",
            "primitives" : [
                {
                    "attributes" : {
                        "POSITION" : 0,
                        "NORMAL" : 1,
                        "TEXCOORD_0" : 2
                    },
                    "indices" : 3
                }
            ]
        },
        {
            "name" : "Cube.001",
            "primitives" : [
                {
                    "attributes" : {
                        "POSITION" : 4,
                        "NORMAL" : 5,
                        "TEXCOORD_0" : 6
                    },
                    "indices" : 7
                }
            ]
        }
    ],
    "accessors" : [
        {
            "bufferView" : 0,
            "componentType" : 5126,
            "count" : 1000,
            "max" : [
                2.234402656555176,
                10.812169075012207,
                2.283735513687134
            ],
            "min" : [
                -2.0967397689819336,
                -1.288577914237976,
                -2.2104756832122803
            ],
            "type" : "VEC3"
        },
        {
            "bufferView" : 1,
            "componentType" : 5126,
            "count" : 1000,
            "type" : "VEC3"
        },
        {
            "bufferView" : 2,
            "componentType" : 5126,
            "count" : 1000,
            "type" : "VEC2"
        },
        {
            "bufferView" : 3,
            "componentType" : 5123,
            "count" : 1500,
            "type" : "SCALAR"
        },
        {
            "bufferView" : 4,
            "componentType" : 5126,
            "count" : 1984,
            "max" : [
                1.0071020126342773,
                0.9166666865348816,
                0.9166666865348816
            ],
            "min" : [
                -0.9244340658187866,
                -7.313183307647705,
                -0.9166666865348816
            ],
            "type" : "VEC3"
        },
        {
            "bufferView" : 5,
            "componentType" : 5126,
            "count" : 1984,
            "type" : "VEC3"
        },
        {
            "bufferView" : 6,
            "componentType" : 5126,
            "count" : 1984,
            "type" : "VEC2"
        },
        {
            "bufferView" : 7,
            "componentType" : 5123,
            "count" : 2976,
            "type" : "SCALAR"
        }
    ],
    "bufferViews" : [
        {
            "buffer" : 0,
            "byteLength" : 12000,
            "byteOffset" : 0
        },
        {
            "buffer" : 0,
            "byteLength" : 12000,
            "byteOffset" : 12000
        },
        {
            "buffer" : 0,
            "byteLength" : 8000,
            "byteOffset" : 24000
        },
        {
            "buffer" : 0,
            "byteLength" : 3000,
            "byteOffset" : 32000
        },
        {
            "buffer" : 0,
            "byteLength" : 23808,
            "byteOffset" : 35000
        },
        {
            "buffer" : 0,
            "byteLength" : 23808,
            "byteOffset" : 58808
        },
        {
            "buffer" : 0,
            "byteLength" : 15872,
            "byteOffset" : 82616
        },
        {
            "buffer" : 0,
            "byteLength" : 5952,
            "byteOffset" : 98488
        }
    ],
    "buffers" : [
        {
            "byteLength" : 104440,
            "uri" : "data:application/octet-stream;base64,"
        }
    ]
}
