{
    "asset" : {
        "generator" : "Khronos glTF Blender I/O v1.5.17",
        "version" : "2.0"
    },
    "scene" : 0,
    "scenes" : [
        {
            "name" : "Scene",
            "nodes" : [
                0
            ]
        }
    ],
    "nodes" : [
        {
            "mesh" : 0,
            "name" : "passengerRef",
            "rotation" : [
                0.5000000596046448,
                0.5,
                -0.5000000596046448,
                0.5000000596046448
            ],
            "translation" : [
                -0.8688619136810303,
                -0.12954086065292358,
                0.06904859840869904
            ]
        }
    ],
    "meshes" : [
        {
            "name" : "Plane",
            "primitives" : [
                {
                    "attributes" : {
                        "POSITION" : 0,
                        "TEXCOORD_0" : 1
                    },
                    "indices" : 2
                }
            ]
        }
    ],
    "accessors" : [
        {
            "bufferView" : 0,
            "componentType" : 5126,
            "count" : 4,
            "max" : [
                1,
                0,
                1
            ],
            "min" : [
                -1,
                0,
                -1
            ],
            "type" : "VEC3"
        },
        {
            "bufferView" : 1,
            "componentType" : 5126,
            "count" : 4,
            "type" : "VEC2"
        },
        {
            "bufferView" : 2,
            "componentType" : 5123,
            "count" : 6,
            "type" : "SCALAR"
        }
    ],
    "bufferViews" : [
        {
            "buffer" : 0,
            "byteLength" : 48,
            "byteOffset" : 0
        },
        {
            "buffer" : 0,
            "byteLength" : 32,
            "byteOffset" : 48
        },
        {
            "buffer" : 0,
            "byteLength" : 12,
            "byteOffset" : 80
        }
    ],
    "buffers" : [
        {
            "byteLength" : 92,
            "uri" : "data:application/octet-stream;base64,"
        }
    ]
}
