{
    "asset" : {
        "generator" : "Khronos glTF Blender I/O v1.5.17",
        "version" : "2.0"
    },
    "scene" : 0,
    "scenes" : [
        {
            "name" : "Scene",
            "nodes" : [
                0,
                1,
                2,
                3,
                4,
                5,
                6
            ]
        }
    ],
    "nodes" : [
        {
            "mesh" : 0,
            "name" : "taxiShell",
            "rotation" : [
                0,
                -1,
                0,
                4.371138828673793e-08
            ],
            "scale" : [
                1.8598350286483765,
                1.5498627424240112,
                2.8930766582489014
            ],
            "translation" : [
                -0.01886191964149475,
                -0.32954084873199463,
                -0.34095141291618347
            ]
        },
        {
            "name" : "Camera",
            "rotation" : [
                0,
                -0.7071067094802856,
                0.7071068286895752,
                3.0908616110991716e-08
            ],
            "translation" : [
                0.9432530403137207,
                0.2763240933418274,
                -0.16143479943275452
            ]
        },
        {
            "mesh" : 1,
            "name" : "dashBase",
            "rotation" : [
                0,
                0,
                -1,
                0
            ],
            "scale" : [
                -1.5816922187805176,
                -0.21830835938453674,
                -0.24765843152999878
            ],
            "translation" : [
                -0.0188618004322052,
                -0.331847608089447,
                1.1283042430877686
            ]
        },
        {
            "mesh" : 2,
            "name" : "driverSeat_Bottom",
            "rotation" : [
                0,
                -1,
                0,
                4.371138828673793e-08
            ],
            "scale" : [
                0.9086260199546814,
                0.9086260199546814,
                0.9086260199546814
            ],
            "translation" : [
                0.9548361301422119,
                -0.8749042749404907,
                -0.1170162707567215
            ]
        },
        {
            "mesh" : 3,
            "name" : "passengerSeat_Bottom",
            "rotation" : [
                0,
                -1,
                0,
                4.371138828673793e-08
            ],
            "scale" : [
                0.9086260199546814,
                0.9086260199546814,
                0.9086260199546814
            ],
            "translation" : [
                -0.9925599098205566,
                -0.8749042749404907,
                -0.11701609194278717
            ]
        },
        {
            "mesh" : 4,
            "name" : "driverSeat_Back",
            "rotation" : [
                0,
                -0.9804010391235352,
                0.1970122903585434,
                4.2854690462945655e-08
            ],
            "scale" : [
                0.8349270224571228,
                0.8349266648292542,
                0.8349266648292542
            ],
            "translation" : [
                0.9567540884017944,
                -0.5782701969146729,
                -0.7485700845718384
            ]
        },
        {
            "mesh" : 5,
            "name" : "passengerSeat_Back",
            "rotation" : [
                0,
                -0.9804010391235352,
                0.1970123052597046,
                4.2854690462945655e-08
            ],
            "scale" : [
                0.8349270224571228,
                0.8349270224571228,
                0.8349270224571228
            ],
            "translation" : [
                -0.9944779872894287,
                -0.5782701969146729,
                -0.7485699653625488
            ]
        }
    ],
    "meshes" : [
        {
            "name" : "Cube.001",
            "primitives" : [
                {
                    "attributes" : {
                        "POSITION" : 0,
                        "TEXCOORD_0" : 1
                    },
                    "indices" : 2
                }
            ]
        },
        {
            "name" : "Cube.002",
            "primitives" : [
                {
                    "attributes" : {
                        "POSITION" : 3,
                        "TEXCOORD_0" : 4
                    },
                    "indices" : 5
                }
            ]
        },
        {
            "name" : "Cube.003",
            "primitives" : [
                {
                    "attributes" : {
                        "POSITION" : 6,
                        "TEXCOORD_0" : 7
                    },
                    "indices" : 8
                }
            ]
        },
        {
            "name" : "Cube.004",
            "primitives" : [
                {
                    "attributes" : {
                        "POSITION" : 9,
                        "TEXCOORD_0" : 10
                    },
                    "indices" : 8
                }
            ]
        },
        {
            "name" : "Cube.005",
            "primitives" : [
                {
                    "attributes" : {
                        "POSITION" : 11,
                        "TEXCOORD_0" : 12
                    },
                    "indices" : 13
                }
            ]
        },
        {
            "name" : "Cube.006",
            "primitives" : [
                {
                    "attributes" : {
                        "POSITION" : 14,
                        "TEXCOORD_0" : 15
                    },
                    "indices" : 13
                }
            ]
        }
    ],
    "accessors" : [
        {
            "bufferView" : 0,
            "componentType" : 5126,
            "count" : 1553,
            "max" : [
                0.9712708592414856,
                0.7185767292976379,
                1.075626015663147
            ],
            "min" : [
                -0.9712708592414856,
                -0.6097739338874817,
                -1.4453669786453247
            ],
            "type" : "VEC3"
        },
        {
            "bufferView" : 1,
            "componentType" : 5126,
            "count" : 1553,
            "type" : "VEC2"
        },
        {
            "bufferView" : 2,
            "componentType" : 5123,
            "count" : 2280,
            "type" : "SCALAR"
        },
        {
            "bufferView" : 3,
            "componentType" : 5126,
            "count" : 483,
            "max" : [
                1,
                2.2758774757385254,
                8.013444900512695
            ],
            "min" : [
                -1,
                -3.930832862854004,
                -1
            ],
            "type" : "VEC3"
        },
        {
            "bufferView" : 4,
            "componentType" : 5126,
            "count" : 483,
            "type" : "VEC2"
        },
        {
            "bufferView" : 5,
            "componentType" : 5123,
            "count" : 852,
            "type" : "SCALAR"
        },
        {
            "bufferView" : 6,
            "componentType" : 5126,
            "count" : 84,
            "max" : [
                0.5964187383651733,
                0.07333893328905106,
                0.5964187383651733
            ],
            "min" : [
                -0.5964187383651733,
                -0.33037233352661133,
                -0.7370151281356812
            ],
            "type" : "VEC3"
        },
        {
            "bufferView" : 7,
            "componentType" : 5126,
            "count" : 84,
            "type" : "VEC2"
        },
        {
            "bufferView" : 8,
            "componentType" : 5123,
            "count" : 132,
            "type" : "SCALAR"
        },
        {
            "bufferView" : 9,
            "componentType" : 5126,
            "count" : 84,
            "max" : [
                0.5964187383651733,
                0.07333893328905106,
                0.5964187383651733
            ],
            "min" : [
                -0.5964187383651733,
                -0.33037233352661133,
                -0.7370151281356812
            ],
            "type" : "VEC3"
        },
        {
            "bufferView" : 10,
            "componentType" : 5126,
            "count" : 84,
            "type" : "VEC2"
        },
        {
            "bufferView" : 11,
            "componentType" : 5126,
            "count" : 905,
            "max" : [
                0.6873995065689087,
                1.2544682025909424,
                0.23473408818244934
            ],
            "min" : [
                -0.6873995065689087,
                -0.6571928262710571,
                -0.37690502405166626
            ],
            "type" : "VEC3"
        },
        {
            "bufferView" : 12,
            "componentType" : 5126,
            "count" : 905,
            "type" : "VEC2"
        },
        {
            "bufferView" : 13,
            "componentType" : 5123,
            "count" : 1350,
            "type" : "SCALAR"
        },
        {
            "bufferView" : 14,
            "componentType" : 5126,
            "count" : 905,
            "max" : [
                0.6873995065689087,
                1.2544682025909424,
                0.23473408818244934
            ],
            "min" : [
                -0.6873995065689087,
                -0.6571928262710571,
                -0.37690502405166626
            ],
            "type" : "VEC3"
        },
        {
            "bufferView" : 15,
            "componentType" : 5126,
            "count" : 905,
            "type" : "VEC2"
        }
    ],
    "bufferViews" : [
        {
            "buffer" : 0,
            "byteLength" : 18636,
            "byteOffset" : 0
        },
        {
            "buffer" : 0,
            "byteLength" : 12424,
            "byteOffset" : 18636
        },
        {
            "buffer" : 0,
            "byteLength" : 4560,
            "byteOffset" : 31060
        },
        {
            "buffer" : 0,
            "byteLength" : 5796,
            "byteOffset" : 35620
        },
        {
            "buffer" : 0,
            "byteLength" : 3864,
            "byteOffset" : 41416
        },
        {
            "buffer" : 0,
            "byteLength" : 1704,
            "byteOffset" : 45280
        },
        {
            "buffer" : 0,
            "byteLength" : 1008,
            "byteOffset" : 46984
        },
        {
            "buffer" : 0,
            "byteLength" : 672,
            "byteOffset" : 47992
        },
        {
            "buffer" : 0,
            "byteLength" : 264,
            "byteOffset" : 48664
        },
        {
            "buffer" : 0,
            "byteLength" : 1008,
            "byteOffset" : 48928
        },
        {
            "buffer" : 0,
            "byteLength" : 672,
            "byteOffset" : 49936
        },
        {
            "buffer" : 0,
            "byteLength" : 10860,
            "byteOffset" : 50608
        },
        {
            "buffer" : 0,
            "byteLength" : 7240,
            "byteOffset" : 61468
        },
        {
            "buffer" : 0,
            "byteLength" : 2700,
            "byteOffset" : 68708
        },
        {
            "buffer" : 0,
            "byteLength" : 10860,
            "byteOffset" : 71408
        },
        {
            "buffer" : 0,
            "byteLength" : 7240,
            "byteOffset" : 82268
        }
    ],
    "buffers" : [
        {
            "byteLength" : 89508,
            "uri" : "data:application/octet-stream;base64,"
        }
    ]
}
