{
    "asset" : {
        "generator" : "Khronos glTF Blender I/O v1.4.40",
        "version" : "2.0"
    },
    "scene" : 0,
    "scenes" : [
        {
            "name" : "Scene",
            "nodes" : [
                0,
                2,
                3,
                4,
                5,
                6,
                7,
                8,
                9,
                10,
                11,
                12
            ]
        }
    ],
    "nodes" : [
        {
            "mesh" : 0,
            "name" : "taxiShell",
            "scale" : [
                1.8598350286483765,
                1.5498627424240112,
                2.8930766582489014
            ]
        },
        {
            "camera" : 0,
            "name" : "Camera_Orientation",
            "rotation" : [
                -0.7071067690849304,
                0,
                0,
                0.7071067690849304
            ]
        },
        {
            "children" : [
                1
            ],
            "name" : "Camera",
            "rotation" : [
                0.7071068286895752,
                0,
                0,
                0.7071068286895752
            ],
            "translation" : [
                -0.9610327482223511,
                0.6183170676231384,
                0.23390111327171326
            ]
        },
        {
            "mesh" : 1,
            "name" : "dashBase",
            "scale" : [
                -1.5816922187805176,
                0.21830835938453674,
                0.24765843152999878
            ],
            "translation" : [
                0,
                -0.002306722104549408,
                -1.4692555665969849
            ]
        },
        {
            "mesh" : 2,
            "name" : "driverSeat_Bottom",
            "scale" : [
                0.9086260199546814,
                0.9086260199546814,
                0.9086260199546814
            ],
            "translation" : [
                -0.9736980199813843,
                -0.5453634262084961,
                -0.22393521666526794
            ]
        },
        {
            "mesh" : 3,
            "name" : "passengerSeat_Bottom",
            "scale" : [
                0.9086260199546814,
                0.9086260199546814,
                0.9086260199546814
            ],
            "translation" : [
                0.9736980199813843,
                -0.5453634262084961,
                -0.22393521666526794
            ]
        },
        {
            "mesh" : 4,
            "name" : "driverSeat_Back",
            "rotation" : [
                0.1970122754573822,
                0,
                0,
                0.9804010391235352
            ],
            "scale" : [
                0.8349270224571228,
                0.8349266052246094,
                0.8349266052246094
            ],
            "translation" : [
                -0.9756160974502563,
                -0.24872934818267822,
                0.4076186418533325
            ]
        },
        {
            "mesh" : 5,
            "name" : "passengerSeat_Back",
            "rotation" : [
                0.1970122754573822,
                0,
                0,
                0.9804010391235352
            ],
            "scale" : [
                0.8349270224571228,
                0.8349270224571228,
                0.8349270224571228
            ],
            "translation" : [
                0.9756159782409668,
                -0.24872934818267822,
                0.4076186418533325
            ]
        },
        {
            "mesh" : 6,
            "name" : "steeringColumn",
            "rotation" : [
                0.5397676229476929,
                0,
                0,
                0.8418140411376953
            ],
            "scale" : [
                0.054230548441410065,
                0.24675826728343964,
                0.054230544716119766
            ],
            "translation" : [
                -1.0375300645828247,
                0.0899190604686737,
                -0.9747721552848816
            ]
        },
        {
            "mesh" : 7,
            "name" : "steeringDashConnector",
            "scale" : [
                0.32908618450164795,
                0.21606963872909546,
                0.12214944511651993
            ],
            "translation" : [
                -1.0073879957199097,
                -0.08203501999378204,
                -1.1788132190704346
            ]
        },
        {
            "mesh" : 8,
            "name" : "gearShitDetail",
            "scale" : [
                0.1690906435251236,
                0.02643759176135063,
                0.26759830117225647
            ],
            "translation" : [
                0,
                -0.5304685831069946,
                -0.6788914799690247
            ]
        },
        {
            "mesh" : 9,
            "name" : "gearShifter",
            "rotation" : [
                0.0391714982688427,
                0,
                0,
                0.9992325305938721
            ],
            "scale" : [
                0.10610757768154144,
                0.10610757768154144,
                0.10610757768154144
            ],
            "translation" : [
                0.026843173429369926,
                -0.28310132026672363,
                -0.7153620719909668
            ]
        },
        {
            "mesh" : 10,
            "name" : "gun",
            "rotation" : [
                0,
                1,
                0,
                -5.6999328827277325e-15
            ],
            "scale" : [
                0.36939874291419983,
                0.05090666189789772,
                0.09695229679346085
            ],
            "translation" : [
                -0.0907592624425888,
                -0.7199497222900391,
                0.7705891728401184
            ]
        }
    ],
    "cameras" : [
        {
            "name" : "Camera",
            "perspective" : {
                "aspectRatio" : 1.7777777777777777,
                "yfov" : 0.7696185925605304,
                "zfar" : 100,
                "znear" : 0.10000000149011612
            },
            "type" : "perspective"
        }
    ],
    "materials" : [
        {
            "doubleSided" : true,
            "name" : "Material",
            "pbrMetallicRoughness" : {
                "baseColorFactor" : [
                    0.800000011920929,
                    0.800000011920929,
                    0.800000011920929,
                    1
                ],
                "metallicFactor" : 0,
                "roughnessFactor" : 0.4000000059604645
            }
        }
    ],
    "meshes" : [
        {
            "name" : "Cube",
            "primitives" : [
                {
                    "attributes" : {
                        "POSITION" : 0,
                        "NORMAL" : 1,
                        "TEXCOORD_0" : 2
                    },
                    "indices" : 3,
                    "material" : 0
                }
            ]
        },
        {
            "name" : "Cube.001",
            "primitives" : [
                {
                    "attributes" : {
                        "POSITION" : 4,
                        "NORMAL" : 5,
                        "TEXCOORD_0" : 6
                    },
                    "indices" : 7
                }
            ]
        },
        {
            "name" : "Cube.002",
            "primitives" : [
                {
                    "attributes" : {
                        "POSITION" : 8,
                        "NORMAL" : 9,
                        "TEXCOORD_0" : 10
                    },
                    "indices" : 11
                }
            ]
        },
        {
            "name" : "Cube.003",
            "primitives" : [
                {
                    "attributes" : {
                        "POSITION" : 12,
                        "NORMAL" : 13,
                        "TEXCOORD_0" : 14
                    },
                    "indices" : 11
                }
            ]
        },
        {
            "name" : "Cube.004",
            "primitives" : [
                {
                    "attributes" : {
                        "POSITION" : 15,
                        "NORMAL" : 16,
                        "TEXCOORD_0" : 17
                    },
                    "indices" : 18
                }
            ]
        },
        {
            "name" : "Cube.005",
            "primitives" : [
                {
                    "attributes" : {
                        "POSITION" : 19,
                        "NORMAL" : 20,
                        "TEXCOORD_0" : 21
                    },
                    "indices" : 18
                }
            ]
        },
        {
            "name" : "Cylinder",
            "primitives" : [
                {
                    "attributes" : {
                        "POSITION" : 22,
                        "NORMAL" : 23,
                        "TEXCOORD_0" : 24
                    },
                    "indices" : 25
                }
            ]
        },
        {
            "name" : "Cube.013",
            "primitives" : [
                {
                    "attributes" : {
                        "POSITION" : 26,
                        "NORMAL" : 27,
                        "TEXCOORD_0" : 28
                    },
                    "indices" : 29
                }
            ]
        },
        {
            "name" : "Cube.014",
            "primitives" : [
                {
                    "attributes" : {
                        "POSITION" : 30,
                        "NORMAL" : 31,
                        "TEXCOORD_0" : 32
                    },
                    "indices" : 33
                }
            ]
        },
        {
            "name" : "Cube.015",
            "primitives" : [
                {
                    "attributes" : {
                        "POSITION" : 34,
                        "NORMAL" : 35,
                        "TEXCOORD_0" : 36
                    },
                    "indices" : 37
                }
            ]
        },
        {
            "name" : "Cube.016",
            "primitives" : [
                {
                    "attributes" : {
                        "POSITION" : 38,
                        "NORMAL" : 39,
                        "TEXCOORD_0" : 40
                    },
                    "indices" : 41
                }
            ]
        }
    ],
    "accessors" : [
        {
            "bufferView" : 0,
            "componentType" : 5126,
            "count" : 1492,
            "max" : [
                0.9712708592414856,
                0.7185767292976379,
                1.075626015663147
            ],
            "min" : [
                -0.9712708592414856,
                -0.6097739338874817,
                -1.4453669786453247
            ],
            "type" : "VEC3"
        },
        {
            "bufferView" : 1,
            "componentType" : 5126,
            "count" : 1492,
            "type" : "VEC3"
        },
        {
            "bufferView" : 2,
            "componentType" : 5126,
            "count" : 1492,
            "type" : "VEC2"
        },
        {
            "bufferView" : 3,
            "componentType" : 5123,
            "count" : 2280,
            "type" : "SCALAR"
        },
        {
            "bufferView" : 4,
            "componentType" : 5126,
            "count" : 477,
            "max" : [
                1,
                2.2758774757385254,
                8.013444900512695
            ],
            "min" : [
                -1,
                -3.930832862854004,
                -1
            ],
            "type" : "VEC3"
        },
        {
            "bufferView" : 5,
            "componentType" : 5126,
            "count" : 477,
            "type" : "VEC3"
        },
        {
            "bufferView" : 6,
            "componentType" : 5126,
            "count" : 477,
            "type" : "VEC2"
        },
        {
            "bufferView" : 7,
            "componentType" : 5123,
            "count" : 852,
            "type" : "SCALAR"
        },
        {
            "bufferView" : 8,
            "componentType" : 5126,
            "count" : 81,
            "max" : [
                0.5964187383651733,
                0.07333893328905106,
                0.5964187383651733
            ],
            "min" : [
                -0.5964187383651733,
                -0.33037233352661133,
                -0.7370151281356812
            ],
            "type" : "VEC3"
        },
        {
            "bufferView" : 9,
            "componentType" : 5126,
            "count" : 81,
            "type" : "VEC3"
        },
        {
            "bufferView" : 10,
            "componentType" : 5126,
            "count" : 81,
            "type" : "VEC2"
        },
        {
            "bufferView" : 11,
            "componentType" : 5123,
            "count" : 132,
            "type" : "SCALAR"
        },
        {
            "bufferView" : 12,
            "componentType" : 5126,
            "count" : 81,
            "max" : [
                0.5964187383651733,
                0.07333893328905106,
                0.5964187383651733
            ],
            "min" : [
                -0.5964187383651733,
                -0.33037233352661133,
                -0.7370151281356812
            ],
            "type" : "VEC3"
        },
        {
            "bufferView" : 13,
            "componentType" : 5126,
            "count" : 81,
            "type" : "VEC3"
        },
        {
            "bufferView" : 14,
            "componentType" : 5126,
            "count" : 81,
            "type" : "VEC2"
        },
        {
            "bufferView" : 15,
            "componentType" : 5126,
            "count" : 903,
            "max" : [
                0.6873995065689087,
                1.2544682025909424,
                0.23473408818244934
            ],
            "min" : [
                -0.6873995065689087,
                -0.6571928262710571,
                -0.37690502405166626
            ],
            "type" : "VEC3"
        },
        {
            "bufferView" : 16,
            "componentType" : 5126,
            "count" : 903,
            "type" : "VEC3"
        },
        {
            "bufferView" : 17,
            "componentType" : 5126,
            "count" : 903,
            "type" : "VEC2"
        },
        {
            "bufferView" : 18,
            "componentType" : 5123,
            "count" : 1350,
            "type" : "SCALAR"
        },
        {
            "bufferView" : 19,
            "componentType" : 5126,
            "count" : 903,
            "max" : [
                0.6873995065689087,
                1.2544682025909424,
                0.23473408818244934
            ],
            "min" : [
                -0.6873995065689087,
                -0.6571928262710571,
                -0.37690502405166626
            ],
            "type" : "VEC3"
        },
        {
            "bufferView" : 20,
            "componentType" : 5126,
            "count" : 903,
            "type" : "VEC3"
        },
        {
            "bufferView" : 21,
            "componentType" : 5126,
            "count" : 903,
            "type" : "VEC2"
        },
        {
            "bufferView" : 22,
            "componentType" : 5126,
            "count" : 48,
            "max" : [
                1,
                1,
                1
            ],
            "min" : [
                -1,
                -1,
                -1
            ],
            "type" : "VEC3"
        },
        {
            "bufferView" : 23,
            "componentType" : 5126,
            "count" : 48,
            "type" : "VEC3"
        },
        {
            "bufferView" : 24,
            "componentType" : 5126,
            "count" : 48,
            "type" : "VEC2"
        },
        {
            "bufferView" : 25,
            "componentType" : 5123,
            "count" : 84,
            "type" : "SCALAR"
        },
        {
            "bufferView" : 26,
            "componentType" : 5126,
            "count" : 96,
            "max" : [
                1,
                1.10066556930542,
                1
            ],
            "min" : [
                -1,
                -0.9751791954040527,
                -1
            ],
            "type" : "VEC3"
        },
        {
            "bufferView" : 27,
            "componentType" : 5126,
            "count" : 96,
            "type" : "VEC3"
        },
        {
            "bufferView" : 28,
            "componentType" : 5126,
            "count" : 96,
            "type" : "VEC2"
        },
        {
            "bufferView" : 29,
            "componentType" : 5123,
            "count" : 132,
            "type" : "SCALAR"
        },
        {
            "bufferView" : 30,
            "componentType" : 5126,
            "count" : 116,
            "max" : [
                1,
                1,
                1
            ],
            "min" : [
                -1,
                -1,
                -1
            ],
            "type" : "VEC3"
        },
        {
            "bufferView" : 31,
            "componentType" : 5126,
            "count" : 116,
            "type" : "VEC3"
        },
        {
            "bufferView" : 32,
            "componentType" : 5126,
            "count" : 116,
            "type" : "VEC2"
        },
        {
            "bufferView" : 33,
            "componentType" : 5123,
            "count" : 186,
            "type" : "SCALAR"
        },
        {
            "bufferView" : 34,
            "componentType" : 5126,
            "count" : 160,
            "max" : [
                0.8395062685012817,
                1.2829021215438843,
                0.7297452092170715
            ],
            "min" : [
                -0.8395062685012817,
                -2.74796724319458,
                -0.7297451496124268
            ],
            "type" : "VEC3"
        },
        {
            "bufferView" : 35,
            "componentType" : 5126,
            "count" : 160,
            "type" : "VEC3"
        },
        {
            "bufferView" : 36,
            "componentType" : 5126,
            "count" : 160,
            "type" : "VEC2"
        },
        {
            "bufferView" : 37,
            "componentType" : 5123,
            "count" : 240,
            "type" : "SCALAR"
        },
        {
            "bufferView" : 38,
            "componentType" : 5126,
            "count" : 672,
            "max" : [
                3.90328311920166,
                1.384745717048645,
                3.323032855987549
            ],
            "min" : [
                -2.976223945617676,
                -1.384743571281433,
                -1.2580995559692383
            ],
            "type" : "VEC3"
        },
        {
            "bufferView" : 39,
            "componentType" : 5126,
            "count" : 672,
            "type" : "VEC3"
        },
        {
            "bufferView" : 40,
            "componentType" : 5126,
            "count" : 672,
            "type" : "VEC2"
        },
        {
            "bufferView" : 41,
            "componentType" : 5123,
            "count" : 1032,
            "type" : "SCALAR"
        }
    ],
    "bufferViews" : [
        {
            "buffer" : 0,
            "byteLength" : 17904,
            "byteOffset" : 0
        },
        {
            "buffer" : 0,
            "byteLength" : 17904,
            "byteOffset" : 17904
        },
        {
            "buffer" : 0,
            "byteLength" : 11936,
            "byteOffset" : 35808
        },
        {
            "buffer" : 0,
            "byteLength" : 4560,
            "byteOffset" : 47744
        },
        {
            "buffer" : 0,
            "byteLength" : 5724,
            "byteOffset" : 52304
        },
        {
            "buffer" : 0,
            "byteLength" : 5724,
            "byteOffset" : 58028
        },
        {
            "buffer" : 0,
            "byteLength" : 3816,
            "byteOffset" : 63752
        },
        {
            "buffer" : 0,
            "byteLength" : 1704,
            "byteOffset" : 67568
        },
        {
            "buffer" : 0,
            "byteLength" : 972,
            "byteOffset" : 69272
        },
        {
            "buffer" : 0,
            "byteLength" : 972,
            "byteOffset" : 70244
        },
        {
            "buffer" : 0,
            "byteLength" : 648,
            "byteOffset" : 71216
        },
        {
            "buffer" : 0,
            "byteLength" : 264,
            "byteOffset" : 71864
        },
        {
            "buffer" : 0,
            "byteLength" : 972,
            "byteOffset" : 72128
        },
        {
            "buffer" : 0,
            "byteLength" : 972,
            "byteOffset" : 73100
        },
        {
            "buffer" : 0,
            "byteLength" : 648,
            "byteOffset" : 74072
        },
        {
            "buffer" : 0,
            "byteLength" : 10836,
            "byteOffset" : 74720
        },
        {
            "buffer" : 0,
            "byteLength" : 10836,
            "byteOffset" : 85556
        },
        {
            "buffer" : 0,
            "byteLength" : 7224,
            "byteOffset" : 96392
        },
        {
            "buffer" : 0,
            "byteLength" : 2700,
            "byteOffset" : 103616
        },
        {
            "buffer" : 0,
            "byteLength" : 10836,
            "byteOffset" : 106316
        },
        {
            "buffer" : 0,
            "byteLength" : 10836,
            "byteOffset" : 117152
        },
        {
            "buffer" : 0,
            "byteLength" : 7224,
            "byteOffset" : 127988
        },
        {
            "buffer" : 0,
            "byteLength" : 576,
            "byteOffset" : 135212
        },
        {
            "buffer" : 0,
            "byteLength" : 576,
            "byteOffset" : 135788
        },
        {
            "buffer" : 0,
            "byteLength" : 384,
            "byteOffset" : 136364
        },
        {
            "buffer" : 0,
            "byteLength" : 168,
            "byteOffset" : 136748
        },
        {
            "buffer" : 0,
            "byteLength" : 1152,
            "byteOffset" : 136916
        },
        {
            "buffer" : 0,
            "byteLength" : 1152,
            "byteOffset" : 138068
        },
        {
            "buffer" : 0,
            "byteLength" : 768,
            "byteOffset" : 139220
        },
        {
            "buffer" : 0,
            "byteLength" : 264,
            "byteOffset" : 139988
        },
        {
            "buffer" : 0,
            "byteLength" : 1392,
            "byteOffset" : 140252
        },
        {
            "buffer" : 0,
            "byteLength" : 1392,
            "byteOffset" : 141644
        },
        {
            "buffer" : 0,
            "byteLength" : 928,
            "byteOffset" : 143036
        },
        {
            "buffer" : 0,
            "byteLength" : 372,
            "byteOffset" : 143964
        },
        {
            "buffer" : 0,
            "byteLength" : 1920,
            "byteOffset" : 144336
        },
        {
            "buffer" : 0,
            "byteLength" : 1920,
            "byteOffset" : 146256
        },
        {
            "buffer" : 0,
            "byteLength" : 1280,
            "byteOffset" : 148176
        },
        {
            "buffer" : 0,
            "byteLength" : 480,
            "byteOffset" : 149456
        },
        {
            "buffer" : 0,
            "byteLength" : 8064,
            "byteOffset" : 149936
        },
        {
            "buffer" : 0,
            "byteLength" : 8064,
            "byteOffset" : 158000
        },
        {
            "buffer" : 0,
            "byteLength" : 5376,
            "byteOffset" : 166064
        },
        {
            "buffer" : 0,
            "byteLength" : 2064,
            "byteOffset" : 171440
        }
    ],
    "buffers" : [
        {
            "byteLength" : 173504,
            "uri" : "data:application/octet-stream;base64,"
        }
    ]
}
