{
    "asset" : {
        "generator" : "Khronos glTF Blender I/O v1.4.40",
        "version" : "2.0"
    },
    "scene" : 0,
    "scenes" : [
        {
            "name" : "Scene",
            "nodes" : [
                0,
                1,
                2,
                3,
                4,
                5,
                6,
                7,
                8,
                9,
                10
            ]
        }
    ],
    "nodes" : [
        {
            "mesh" : 0,
            "name" : "taxiShell",
            "scale" : [
                1.8598350286483765,
                1.5498627424240112,
                2.8930766582489014
            ]
        },
        {
            "name" : "Camera",
            "rotation" : [
                0.7071068286895752,
                0,
                0,
                0.7071068286895752
            ],
            "translation" : [
                -0.9610327482223511,
                0.6183170676231384,
                0.42339420318603516
            ]
        },
        {
            "mesh" : 1,
            "name" : "dashBase",
            "scale" : [
                -1.5816922187805176,
                0.21830835938453674,
                0.24765843152999878
            ],
            "translation" : [
                0,
                -0.002306722104549408,
                -1.4692555665969849
            ]
        },
        {
            "mesh" : 2,
            "name" : "driverSeat_Bottom",
            "scale" : [
                0.9086260199546814,
                0.9086260199546814,
                0.9086260199546814
            ],
            "translation" : [
                -0.9736980199813843,
                -0.5453634262084961,
                -0.22393521666526794
            ]
        },
        {
            "mesh" : 3,
            "name" : "passengerSeat_Bottom",
            "scale" : [
                0.9086260199546814,
                0.9086260199546814,
                0.9086260199546814
            ],
            "translation" : [
                0.9736980199813843,
                -0.5453634262084961,
                -0.22393521666526794
            ]
        },
        {
            "mesh" : 4,
            "name" : "driverSeat_Back",
            "rotation" : [
                0.1970122754573822,
                0,
                0,
                0.9804010391235352
            ],
            "scale" : [
                0.8349270224571228,
                0.8349266052246094,
                0.8349266052246094
            ],
            "translation" : [
                -0.9756160974502563,
                -0.24872934818267822,
                0.4076186418533325
            ]
        },
        {
            "mesh" : 5,
            "name" : "passengerSeat_Back",
            "rotation" : [
                0.1970122754573822,
                0,
                0,
                0.9804010391235352
            ],
            "scale" : [
                0.8349270224571228,
                0.8349270224571228,
                0.8349270224571228
            ],
            "translation" : [
                0.9756159782409668,
                -0.24872934818267822,
                0.4076186418533325
            ]
        },
        {
            "mesh" : 6,
            "name" : "passengerRef_Head",
            "rotation" : [
                0.15912221372127533,
                0,
                0,
                0.9872589111328125
            ],
            "scale" : [
                0.2361530065536499,
                0.3303106725215912,
                0.2361530065536499
            ],
            "translation" : [
                1.0287116765975952,
                0.6981872916221619,
                0.14205679297447205
            ]
        },
        {
            "mesh" : 7,
            "name" : "passengerRef_Torso",
            "rotation" : [
                0.15046362578868866,
                0,
                0,
                0.9886155724525452
            ],
            "scale" : [
                0.3889409601688385,
                0.3889409601688385,
                0.2639865577220917
            ],
            "translation" : [
                1.0206944942474365,
                0.0030749142169952393,
                0.03025902807712555
            ]
        },
        {
            "mesh" : 8,
            "name" : "passengerRef_Lowso",
            "rotation" : [
                0.7987547516822815,
                0,
                0,
                0.6016567945480347
            ],
            "scale" : [
                0.3889409601688385,
                0.3889409601688385,
                0.2639865577220917
            ],
            "translation" : [
                1.0206944942474365,
                -0.5075439214706421,
                -0.41033831238746643
            ]
        },
        {
            "mesh" : 9,
            "name" : "camRef",
            "scale" : [
                0.07682067155838013,
                0.07682067155838013,
                0.07682067155838013
            ],
            "translation" : [
                -0.9621151685714722,
                0.6381208896636963,
                0.5078279376029968
            ]
        }
    ],
    "materials" : [
        {
            "doubleSided" : true,
            "name" : "Material",
            "pbrMetallicRoughness" : {
                "baseColorFactor" : [
                    0.800000011920929,
                    0.800000011920929,
                    0.800000011920929,
                    1
                ],
                "metallicFactor" : 0,
                "roughnessFactor" : 0.4000000059604645
            }
        }
    ],
    "meshes" : [
        {
            "name" : "Cube",
            "primitives" : [
                {
                    "attributes" : {
                        "POSITION" : 0,
                        "NORMAL" : 1,
                        "TEXCOORD_0" : 2
                    },
                    "indices" : 3,
                    "material" : 0
                }
            ]
        },
        {
            "name" : "Cube.001",
            "primitives" : [
                {
                    "attributes" : {
                        "POSITION" : 4,
                        "NORMAL" : 5,
                        "TEXCOORD_0" : 6
                    },
                    "indices" : 7
                }
            ]
        },
        {
            "name" : "Cube.002",
            "primitives" : [
                {
                    "attributes" : {
                        "POSITION" : 8,
                        "NORMAL" : 9,
                        "TEXCOORD_0" : 10
                    },
                    "indices" : 11
                }
            ]
        },
        {
            "name" : "Cube.003",
            "primitives" : [
                {
                    "attributes" : {
                        "POSITION" : 12,
                        "NORMAL" : 13,
                        "TEXCOORD_0" : 14
                    },
                    "indices" : 11
                }
            ]
        },
        {
            "name" : "Cube.004",
            "primitives" : [
                {
                    "attributes" : {
                        "POSITION" : 15,
                        "NORMAL" : 16,
                        "TEXCOORD_0" : 17
                    },
                    "indices" : 18
                }
            ]
        },
        {
            "name" : "Cube.005",
            "primitives" : [
                {
                    "attributes" : {
                        "POSITION" : 19,
                        "NORMAL" : 20,
                        "TEXCOORD_0" : 21
                    },
                    "indices" : 18
                }
            ]
        },
        {
            "name" : "Icosphere",
            "primitives" : [
                {
                    "attributes" : {
                        "POSITION" : 22,
                        "NORMAL" : 23,
                        "TEXCOORD_0" : 24
                    },
                    "indices" : 25
                }
            ]
        },
        {
            "name" : "Cube.006",
            "primitives" : [
                {
                    "attributes" : {
                        "POSITION" : 26,
                        "NORMAL" : 27,
                        "TEXCOORD_0" : 28
                    },
                    "indices" : 29
                }
            ]
        },
        {
            "name" : "Cube.007",
            "primitives" : [
                {
                    "attributes" : {
                        "POSITION" : 30,
                        "NORMAL" : 31,
                        "TEXCOORD_0" : 32
                    },
                    "indices" : 29
                }
            ]
        },
        {
            "name" : "Cube.008",
            "primitives" : [
                {
                    "attributes" : {
                        "POSITION" : 33,
                        "NORMAL" : 34,
                        "TEXCOORD_0" : 35
                    },
                    "indices" : 29
                }
            ]
        }
    ],
    "accessors" : [
        {
            "bufferView" : 0,
            "componentType" : 5126,
            "count" : 1553,
            "max" : [
                0.9712708592414856,
                0.7185767292976379,
                1.075626015663147
            ],
            "min" : [
                -0.9712708592414856,
                -0.6097739338874817,
                -1.4453669786453247
            ],
            "type" : "VEC3"
        },
        {
            "bufferView" : 1,
            "componentType" : 5126,
            "count" : 1553,
            "type" : "VEC3"
        },
        {
            "bufferView" : 2,
            "componentType" : 5126,
            "count" : 1553,
            "type" : "VEC2"
        },
        {
            "bufferView" : 3,
            "componentType" : 5123,
            "count" : 2280,
            "type" : "SCALAR"
        },
        {
            "bufferView" : 4,
            "componentType" : 5126,
            "count" : 483,
            "max" : [
                1,
                2.2758774757385254,
                8.013444900512695
            ],
            "min" : [
                -1,
                -3.930832862854004,
                -1
            ],
            "type" : "VEC3"
        },
        {
            "bufferView" : 5,
            "componentType" : 5126,
            "count" : 483,
            "type" : "VEC3"
        },
        {
            "bufferView" : 6,
            "componentType" : 5126,
            "count" : 483,
            "type" : "VEC2"
        },
        {
            "bufferView" : 7,
            "componentType" : 5123,
            "count" : 852,
            "type" : "SCALAR"
        },
        {
            "bufferView" : 8,
            "componentType" : 5126,
            "count" : 84,
            "max" : [
                0.5964187383651733,
                0.07333893328905106,
                0.5964187383651733
            ],
            "min" : [
                -0.5964187383651733,
                -0.33037233352661133,
                -0.7370151281356812
            ],
            "type" : "VEC3"
        },
        {
            "bufferView" : 9,
            "componentType" : 5126,
            "count" : 84,
            "type" : "VEC3"
        },
        {
            "bufferView" : 10,
            "componentType" : 5126,
            "count" : 84,
            "type" : "VEC2"
        },
        {
            "bufferView" : 11,
            "componentType" : 5123,
            "count" : 132,
            "type" : "SCALAR"
        },
        {
            "bufferView" : 12,
            "componentType" : 5126,
            "count" : 84,
            "max" : [
                0.5964187383651733,
                0.07333893328905106,
                0.5964187383651733
            ],
            "min" : [
                -0.5964187383651733,
                -0.33037233352661133,
                -0.7370151281356812
            ],
            "type" : "VEC3"
        },
        {
            "bufferView" : 13,
            "componentType" : 5126,
            "count" : 84,
            "type" : "VEC3"
        },
        {
            "bufferView" : 14,
            "componentType" : 5126,
            "count" : 84,
            "type" : "VEC2"
        },
        {
            "bufferView" : 15,
            "componentType" : 5126,
            "count" : 905,
            "max" : [
                0.6873995065689087,
                1.2544682025909424,
                0.23473408818244934
            ],
            "min" : [
                -0.6873995065689087,
                -0.6571928262710571,
                -0.37690502405166626
            ],
            "type" : "VEC3"
        },
        {
            "bufferView" : 16,
            "componentType" : 5126,
            "count" : 905,
            "type" : "VEC3"
        },
        {
            "bufferView" : 17,
            "componentType" : 5126,
            "count" : 905,
            "type" : "VEC2"
        },
        {
            "bufferView" : 18,
            "componentType" : 5123,
            "count" : 1350,
            "type" : "SCALAR"
        },
        {
            "bufferView" : 19,
            "componentType" : 5126,
            "count" : 905,
            "max" : [
                0.6873995065689087,
                1.2544682025909424,
                0.23473408818244934
            ],
            "min" : [
                -0.6873995065689087,
                -0.6571928262710571,
                -0.37690502405166626
            ],
            "type" : "VEC3"
        },
        {
            "bufferView" : 20,
            "componentType" : 5126,
            "count" : 905,
            "type" : "VEC3"
        },
        {
            "bufferView" : 21,
            "componentType" : 5126,
            "count" : 905,
            "type" : "VEC2"
        },
        {
            "bufferView" : 22,
            "componentType" : 5126,
            "count" : 240,
            "max" : [
                0.9510578513145447,
                1,
                0.9999999403953552
            ],
            "min" : [
                -0.9510578513145447,
                -1,
                -0.9999999403953552
            ],
            "type" : "VEC3"
        },
        {
            "bufferView" : 23,
            "componentType" : 5126,
            "count" : 240,
            "type" : "VEC3"
        },
        {
            "bufferView" : 24,
            "componentType" : 5126,
            "count" : 240,
            "type" : "VEC2"
        },
        {
            "bufferView" : 25,
            "componentType" : 5123,
            "count" : 240,
            "type" : "SCALAR"
        },
        {
            "bufferView" : 26,
            "componentType" : 5126,
            "count" : 24,
            "max" : [
                1,
                1,
                0.590721607208252
            ],
            "min" : [
                -1,
                -1,
                -1
            ],
            "type" : "VEC3"
        },
        {
            "bufferView" : 27,
            "componentType" : 5126,
            "count" : 24,
            "type" : "VEC3"
        },
        {
            "bufferView" : 28,
            "componentType" : 5126,
            "count" : 24,
            "type" : "VEC2"
        },
        {
            "bufferView" : 29,
            "componentType" : 5123,
            "count" : 36,
            "type" : "SCALAR"
        },
        {
            "bufferView" : 30,
            "componentType" : 5126,
            "count" : 24,
            "max" : [
                1,
                1,
                0.590721607208252
            ],
            "min" : [
                -1,
                -1,
                -1
            ],
            "type" : "VEC3"
        },
        {
            "bufferView" : 31,
            "componentType" : 5126,
            "count" : 24,
            "type" : "VEC3"
        },
        {
            "bufferView" : 32,
            "componentType" : 5126,
            "count" : 24,
            "type" : "VEC2"
        },
        {
            "bufferView" : 33,
            "componentType" : 5126,
            "count" : 24,
            "max" : [
                1,
                1,
                1
            ],
            "min" : [
                -1,
                -1,
                -1
            ],
            "type" : "VEC3"
        },
        {
            "bufferView" : 34,
            "componentType" : 5126,
            "count" : 24,
            "type" : "VEC3"
        },
        {
            "bufferView" : 35,
            "componentType" : 5126,
            "count" : 24,
            "type" : "VEC2"
        }
    ],
    "bufferViews" : [
        {
            "buffer" : 0,
            "byteLength" : 18636,
            "byteOffset" : 0
        },
        {
            "buffer" : 0,
            "byteLength" : 18636,
            "byteOffset" : 18636
        },
        {
            "buffer" : 0,
            "byteLength" : 12424,
            "byteOffset" : 37272
        },
        {
            "buffer" : 0,
            "byteLength" : 4560,
            "byteOffset" : 49696
        },
        {
            "buffer" : 0,
            "byteLength" : 5796,
            "byteOffset" : 54256
        },
        {
            "buffer" : 0,
            "byteLength" : 5796,
            "byteOffset" : 60052
        },
        {
            "buffer" : 0,
            "byteLength" : 3864,
            "byteOffset" : 65848
        },
        {
            "buffer" : 0,
            "byteLength" : 1704,
            "byteOffset" : 69712
        },
        {
            "buffer" : 0,
            "byteLength" : 1008,
            "byteOffset" : 71416
        },
        {
            "buffer" : 0,
            "byteLength" : 1008,
            "byteOffset" : 72424
        },
        {
            "buffer" : 0,
            "byteLength" : 672,
            "byteOffset" : 73432
        },
        {
            "buffer" : 0,
            "byteLength" : 264,
            "byteOffset" : 74104
        },
        {
            "buffer" : 0,
            "byteLength" : 1008,
            "byteOffset" : 74368
        },
        {
            "buffer" : 0,
            "byteLength" : 1008,
            "byteOffset" : 75376
        },
        {
            "buffer" : 0,
            "byteLength" : 672,
            "byteOffset" : 76384
        },
        {
            "buffer" : 0,
            "byteLength" : 10860,
            "byteOffset" : 77056
        },
        {
            "buffer" : 0,
            "byteLength" : 10860,
            "byteOffset" : 87916
        },
        {
            "buffer" : 0,
            "byteLength" : 7240,
            "byteOffset" : 98776
        },
        {
            "buffer" : 0,
            "byteLength" : 2700,
            "byteOffset" : 106016
        },
        {
            "buffer" : 0,
            "byteLength" : 10860,
            "byteOffset" : 108716
        },
        {
            "buffer" : 0,
            "byteLength" : 10860,
            "byteOffset" : 119576
        },
        {
            "buffer" : 0,
            "byteLength" : 7240,
            "byteOffset" : 130436
        },
        {
            "buffer" : 0,
            "byteLength" : 2880,
            "byteOffset" : 137676
        },
        {
            "buffer" : 0,
            "byteLength" : 2880,
            "byteOffset" : 140556
        },
        {
            "buffer" : 0,
            "byteLength" : 1920,
            "byteOffset" : 143436
        },
        {
            "buffer" : 0,
            "byteLength" : 480,
            "byteOffset" : 145356
        },
        {
            "buffer" : 0,
            "byteLength" : 288,
            "byteOffset" : 145836
        },
        {
            "buffer" : 0,
            "byteLength" : 288,
            "byteOffset" : 146124
        },
        {
            "buffer" : 0,
            "byteLength" : 192,
            "byteOffset" : 146412
        },
        {
            "buffer" : 0,
            "byteLength" : 72,
            "byteOffset" : 146604
        },
        {
            "buffer" : 0,
            "byteLength" : 288,
            "byteOffset" : 146676
        },
        {
            "buffer" : 0,
            "byteLength" : 288,
            "byteOffset" : 146964
        },
        {
            "buffer" : 0,
            "byteLength" : 192,
            "byteOffset" : 147252
        },
        {
            "buffer" : 0,
            "byteLength" : 288,
            "byteOffset" : 147444
        },
        {
            "buffer" : 0,
            "byteLength" : 288,
            "byteOffset" : 147732
        },
        {
            "buffer" : 0,
            "byteLength" : 192,
            "byteOffset" : 148020
        }
    ],
    "buffers" : [
        {
            "byteLength" : 148212,
            "uri" : "data:application/octet-stream;base64,"
        }
    ]
}
